<svg width="114" height="114" viewBox="0 0 114 114" fill="none" xmlns="http://www.w3.org/2000/svg">
<circle cx="57" cy="57" r="55.5" stroke="#4A097C" stroke-width="3"/>
<path d="M36.8487 58.398C37.1848 57.6294 37.3524 56.8075 37.3524 55.9338V36.5887V36.4387H37.2024H34.9379H34.7879V36.5887V55.9338C34.7879 56.476 34.6864 56.9822 34.4843 57.4539C34.281 57.9169 34.0046 58.3287 33.6548 58.6899C33.3063 59.0383 32.8955 59.3142 32.4211 59.5175L32.4199 59.518C31.9605 59.7197 31.4604 59.8213 30.9179 59.8213H29.338C28.7957 59.8213 28.2894 59.7198 27.8176 59.5177C27.3551 59.3145 26.9437 59.0384 26.5827 58.6891C26.2333 58.328 25.9572 57.9166 25.754 57.454C25.5519 56.9822 25.4504 56.476 25.4504 55.9338V36.5887V36.4387H25.3004H23.0359H22.8859V36.5887V55.9338C22.8859 56.8071 23.0475 57.6287 23.3717 58.3971L23.3716 58.3971L23.3724 58.3989C23.7074 59.1645 24.1626 59.8356 24.7379 60.4109C25.3133 60.9863 25.9844 61.4415 26.75 61.7765L26.7526 61.7775C27.5322 62.1014 28.3593 62.263 29.2326 62.263H31.0232C31.8965 62.263 32.7181 62.1014 33.4865 61.7772L33.4883 61.7764C34.2539 61.4415 34.925 60.9863 35.5004 60.4109C36.0759 59.8354 36.5254 59.164 36.8487 58.398ZM36.8487 58.398C36.8486 58.3983 36.8484 58.3986 36.8483 58.3989L36.7109 58.3388M36.8487 58.398C36.8488 58.3977 36.849 58.3974 36.8491 58.3971L36.7109 58.3388M36.7109 58.3388C36.3949 59.0878 35.956 59.7431 35.3943 60.3049C34.8325 60.8666 34.1772 61.3113 33.4282 61.639M36.7109 58.3388C37.0386 57.5898 37.2024 56.7881 37.2024 55.9338V36.7387V36.5887H37.0524H35.0879H34.9379V36.7387V55.9338C34.9379 56.4955 34.8325 57.0222 34.6219 57.5137C34.4112 57.9935 34.1245 58.4207 33.7617 58.7952C33.3989 59.158 32.9718 59.4447 32.4802 59.6553L33.4282 61.639M33.4282 61.639C32.6792 61.955 31.8775 62.113 31.0232 62.113H29.2326C28.3783 62.113 27.5708 61.955 26.8101 61.639C26.0611 61.3113 25.4058 60.8666 24.844 60.3049C24.2823 59.7431 23.8375 59.0878 23.5099 58.3388L33.4282 61.639ZM42.0906 61.7619V61.9119H42.2406H54.1426H54.2926V61.7619V59.6027V59.4527H54.1426H44.6551V36.5887V36.4387H44.5051H42.2406H42.0906V36.5887V61.7619ZM57.5912 61.7619V61.9119H57.7412H71.9078H72.0578V61.7619V59.6027V59.4527H71.9078H60.1558V50.4137H69.6432H69.7932V50.2637V48.1045V47.9545H69.6432H60.1558V38.8979H71.9078H72.0578V38.7479V36.5887V36.4387H71.9078H57.7412H57.5912V36.5887V61.7619ZM86.3257 61.7772L86.3275 61.7764C87.0931 61.4415 87.7642 60.9863 88.3396 60.4109C88.9151 59.8354 89.3645 59.1641 89.6878 58.3982C90.024 57.6296 90.1916 56.8076 90.1916 55.9338V36.5887V36.4387H90.0416H87.7771H87.6271V36.5887V55.9338C87.6271 56.4761 87.5256 56.9823 87.3234 57.4541C87.1201 57.917 86.8438 58.3286 86.4941 58.6898C86.1456 59.0382 85.7348 59.3142 85.2604 59.5175L85.2591 59.518C84.7997 59.7197 84.2996 59.8213 83.7571 59.8213H82.1772C81.6349 59.8213 81.1286 59.7198 80.6568 59.5177C80.1943 59.3145 79.7829 59.0384 79.4219 58.6891C79.0724 58.328 78.7963 57.9165 78.5931 57.4537C78.3911 56.9821 78.2896 56.4759 78.2896 55.9338V36.5887V36.4387H78.1396H75.8751H75.7251V36.5887V55.9338C75.7251 56.8071 75.8867 57.6287 76.2108 58.3971L76.2116 58.3989C76.5466 59.1645 77.0018 59.8356 77.5771 60.4109C78.1525 60.9863 78.8236 61.4415 79.5892 61.7765L79.5918 61.7775C80.3714 62.1014 81.1985 62.263 82.0718 62.263H83.8624C84.7357 62.263 85.5573 62.1014 86.3257 61.7772Z" fill="#4A097C" stroke="#4A097C" stroke-width="0.3"/>
<mask id="path-3-outside-1_204_294" maskUnits="userSpaceOnUse" x="22.3198" y="71.6878" width="68" height="14" fill="black">
<rect fill="white" x="22.3198" y="71.6878" width="68" height="14"/>
<path d="M29.2519 82.5802C29.2519 82.9285 29.1816 83.2487 29.0412 83.5408C28.9008 83.8273 28.7098 84.0744 28.4682 84.2823C28.2267 84.4901 27.9458 84.653 27.6256 84.771C27.311 84.8833 26.9796 84.9395 26.6313 84.9395H25.9404C25.5921 84.9395 25.2578 84.8749 24.9377 84.7457C24.6231 84.6109 24.345 84.4283 24.1035 84.198C23.8675 83.9677 23.6765 83.6981 23.5305 83.3891C23.39 83.0801 23.3198 82.7515 23.3198 82.4032V82.0578L24.3562 81.8892V82.4622C24.3562 82.6701 24.3984 82.8667 24.4826 83.052C24.5725 83.2318 24.6905 83.3891 24.8365 83.5239C24.9826 83.6587 25.1511 83.7655 25.3421 83.8441C25.5331 83.9227 25.7325 83.9621 25.9404 83.9621H26.6313C26.8392 83.9621 27.0386 83.9312 27.2296 83.8694C27.4206 83.8076 27.5891 83.7205 27.7351 83.6082C27.8868 83.4902 28.0048 83.3498 28.089 83.1869C28.1789 83.024 28.2239 82.8386 28.2239 82.6307C28.2239 82.3218 28.1565 82.069 28.0216 81.8724C27.8868 81.6758 27.7071 81.5129 27.4824 81.3837C27.2633 81.2488 27.0105 81.1393 26.724 81.055C26.4431 80.9652 26.1538 80.8781 25.8561 80.7938C25.5584 80.7039 25.2663 80.6028 24.9798 80.4905C24.6989 80.3781 24.4461 80.2321 24.2214 80.0523C24.0023 79.8669 23.8254 79.6366 23.6906 79.3614C23.5558 79.0861 23.4883 78.7435 23.4883 78.3334C23.4883 77.9851 23.5558 77.6677 23.6906 77.3812C23.8254 77.0891 24.008 76.8391 24.2383 76.6313C24.4686 76.4234 24.7354 76.2633 25.0388 76.151C25.3477 76.033 25.6763 75.974 26.0246 75.974H26.6313C26.9796 75.974 27.3082 76.0415 27.6172 76.1763C27.9261 76.3055 28.1958 76.4852 28.4261 76.7156C28.6564 76.9459 28.8362 77.2155 28.9654 77.5245C29.1002 77.8334 29.1676 78.162 29.1676 78.5103V78.544L28.1312 78.7126V78.4513C28.1312 78.2435 28.0919 78.0497 28.0132 77.8699C27.9346 77.6846 27.8278 77.5245 27.693 77.3896C27.5582 77.2548 27.3981 77.1481 27.2127 77.0695C27.033 76.9908 26.8392 76.9515 26.6313 76.9515H26.0246C25.8168 76.9515 25.6202 76.9824 25.4348 77.0442C25.255 77.106 25.0977 77.1958 24.9629 77.3138C24.8281 77.4262 24.7214 77.5638 24.6427 77.7267C24.5641 77.8896 24.5248 78.075 24.5248 78.2828C24.5248 78.5805 24.5922 78.8249 24.727 79.0159C24.8618 79.2013 25.0388 79.3586 25.2578 79.4878C25.4825 79.617 25.7353 79.7265 26.0162 79.8164C26.3027 79.9007 26.592 79.9905 26.8841 80.086C27.1818 80.1759 27.4711 80.2798 27.752 80.3978C28.0385 80.5158 28.2913 80.6674 28.5104 80.8528C28.7351 81.0382 28.9148 81.2713 29.0496 81.5522C29.1844 81.8274 29.2519 82.1701 29.2519 82.5802Z"/>
<path d="M42.0947 82.4032C42.0947 82.7515 42.0273 83.0801 41.8925 83.3891C41.7633 83.6981 41.5835 83.9677 41.3532 84.198C41.1229 84.4283 40.8533 84.6109 40.5443 84.7457C40.2353 84.8749 39.9067 84.9395 39.5584 84.9395H38.8675C38.5192 84.9395 38.1906 84.8749 37.8816 84.7457C37.5727 84.6109 37.303 84.4283 37.0727 84.198C36.8424 83.9677 36.6598 83.6981 36.525 83.3891C36.3958 83.0801 36.3312 82.7515 36.3312 82.4032V78.5103C36.3312 78.162 36.3958 77.8334 36.525 77.5245C36.6598 77.2155 36.8424 76.9459 37.0727 76.7156C37.303 76.4852 37.5727 76.3055 37.8816 76.1763C38.1906 76.0415 38.5192 75.974 38.8675 75.974H39.5584C39.9067 75.974 40.2353 76.0415 40.5443 76.1763C40.8533 76.3055 41.1229 76.4852 41.3532 76.7156C41.5835 76.9459 41.7633 77.2155 41.8925 77.5245C42.0273 77.8334 42.0947 78.162 42.0947 78.5103V78.8558L41.0583 79.0243V78.4513C41.0583 78.2435 41.019 78.0497 40.9403 77.8699C40.8617 77.6846 40.7549 77.5245 40.6201 77.3896C40.4853 77.2548 40.3252 77.1481 40.1398 77.0695C39.9601 76.9908 39.7663 76.9515 39.5584 76.9515H38.8675C38.6596 76.9515 38.463 76.9908 38.2777 77.0695C38.0979 77.1481 37.9406 77.2548 37.8058 77.3896C37.671 77.5245 37.5642 77.6846 37.4856 77.8699C37.4069 78.0497 37.3676 78.2435 37.3676 78.4513V82.4622C37.3676 82.6701 37.4069 82.8667 37.4856 83.052C37.5642 83.2318 37.671 83.3891 37.8058 83.5239C37.9406 83.6587 38.0979 83.7655 38.2777 83.8441C38.463 83.9227 38.6596 83.9621 38.8675 83.9621H39.5584C39.7663 83.9621 39.9601 83.9227 40.1398 83.8441C40.3252 83.7655 40.4853 83.6587 40.6201 83.5239C40.7549 83.3891 40.8617 83.2318 40.9403 83.052C41.019 82.8667 41.0583 82.6701 41.0583 82.4622V81.8892L42.0947 82.0578V82.4032Z"/>
<path d="M53.9854 84.771V78.4513C53.9854 78.2435 53.9461 78.0497 53.8674 77.8699C53.7888 77.6846 53.6821 77.5245 53.5472 77.3896C53.4124 77.2548 53.2523 77.1481 53.067 77.0695C52.8872 76.9908 52.6934 76.9515 52.4855 76.9515H51.7946C51.5868 76.9515 51.3901 76.9908 51.2048 77.0695C51.025 77.1481 50.8677 77.2548 50.7329 77.3896C50.5981 77.5245 50.4914 77.6846 50.4127 77.8699C50.3341 78.0497 50.2947 78.2435 50.2947 78.4513V84.771H49.2583V72.6878H50.2947V76.8672C50.5307 76.5864 50.8144 76.3673 51.1458 76.21C51.4772 76.0527 51.8367 75.974 52.2243 75.974H52.4855C52.8338 75.974 53.1625 76.0415 53.4714 76.1763C53.7804 76.3055 54.05 76.4852 54.2803 76.7156C54.5106 76.9459 54.6904 77.2155 54.8196 77.5245C54.9544 77.8334 55.0218 78.162 55.0218 78.5103V84.771H53.9854Z"/>
<path d="M67.9489 82.4032C67.9489 82.7515 67.8815 83.0801 67.7467 83.3891C67.6175 83.6981 67.4378 83.9677 67.2074 84.198C66.9771 84.4283 66.7075 84.6109 66.3985 84.7457C66.0896 84.8749 65.7609 84.9395 65.4127 84.9395H64.7217C64.3734 84.9395 64.0448 84.8749 63.7358 84.7457C63.4269 84.6109 63.1573 84.4283 62.9269 84.198C62.6966 83.9677 62.5141 83.6981 62.3792 83.3891C62.25 83.0801 62.1854 82.7515 62.1854 82.4032V78.5103C62.1854 78.162 62.25 77.8334 62.3792 77.5245C62.5141 77.2155 62.6966 76.9459 62.9269 76.7156C63.1573 76.4852 63.4269 76.3055 63.7358 76.1763C64.0448 76.0415 64.3734 75.974 64.7217 75.974H65.4127C65.7609 75.974 66.0896 76.0415 66.3985 76.1763C66.7075 76.3055 66.9771 76.4852 67.2074 76.7156C67.4378 76.9459 67.6175 77.2155 67.7467 77.5245C67.8815 77.8334 67.9489 78.162 67.9489 78.5103V82.4032ZM66.9125 78.4513C66.9125 78.2435 66.8732 78.0497 66.7946 77.8699C66.7159 77.6846 66.6092 77.5245 66.4744 77.3896C66.3395 77.2548 66.1794 77.1481 65.9941 77.0695C65.8143 76.9908 65.6205 76.9515 65.4127 76.9515H64.7217C64.5139 76.9515 64.3173 76.9908 64.1319 77.0695C63.9521 77.1481 63.7948 77.2548 63.66 77.3896C63.5252 77.5245 63.4185 77.6846 63.3398 77.8699C63.2612 78.0497 63.2219 78.2435 63.2219 78.4513V82.4622C63.2219 82.6701 63.2612 82.8667 63.3398 83.052C63.4185 83.2318 63.5252 83.3891 63.66 83.5239C63.7948 83.6587 63.9521 83.7655 64.1319 83.8441C64.3173 83.9227 64.5139 83.9621 64.7217 83.9621H65.4127C65.6205 83.9621 65.8143 83.9227 65.9941 83.8441C66.1794 83.7655 66.3395 83.6587 66.4744 83.5239C66.6092 83.3891 66.7159 83.2318 66.7946 83.052C66.8732 82.8667 66.9125 82.6701 66.9125 82.4622V78.4513Z"/>
<path d="M80.8761 82.4032C80.8761 82.7515 80.8086 83.0801 80.6738 83.3891C80.5446 83.6981 80.3649 83.9677 80.1346 84.198C79.9042 84.4283 79.6346 84.6109 79.3256 84.7457C79.0167 84.8749 78.6881 84.9395 78.3398 84.9395H77.6488C77.3005 84.9395 76.9719 84.8749 76.663 84.7457C76.354 84.6109 76.0844 84.4283 75.8541 84.198C75.6237 83.9677 75.4412 83.6981 75.3063 83.3891C75.1771 83.0801 75.1125 82.7515 75.1125 82.4032V78.5103C75.1125 78.162 75.1771 77.8334 75.3063 77.5245C75.4412 77.2155 75.6237 76.9459 75.8541 76.7156C76.0844 76.4852 76.354 76.3055 76.663 76.1763C76.9719 76.0415 77.3005 75.974 77.6488 75.974H78.3398C78.6881 75.974 79.0167 76.0415 79.3256 76.1763C79.6346 76.3055 79.9042 76.4852 80.1346 76.7156C80.3649 76.9459 80.5446 77.2155 80.6738 77.5245C80.8086 77.8334 80.8761 78.162 80.8761 78.5103V82.4032ZM79.8396 78.4513C79.8396 78.2435 79.8003 78.0497 79.7217 77.8699C79.643 77.6846 79.5363 77.5245 79.4015 77.3896C79.2667 77.2548 79.1066 77.1481 78.9212 77.0695C78.7414 76.9908 78.5476 76.9515 78.3398 76.9515H77.6488C77.441 76.9515 77.2444 76.9908 77.059 77.0695C76.8792 77.1481 76.7219 77.2548 76.5871 77.3896C76.4523 77.5245 76.3456 77.6846 76.2669 77.8699C76.1883 78.0497 76.149 78.2435 76.149 78.4513V82.4622C76.149 82.6701 76.1883 82.8667 76.2669 83.052C76.3456 83.2318 76.4523 83.3891 76.5871 83.5239C76.7219 83.6587 76.8792 83.7655 77.059 83.8441C77.2444 83.9227 77.441 83.9621 77.6488 83.9621H78.3398C78.5476 83.9621 78.7414 83.9227 78.9212 83.8441C79.1066 83.7655 79.2667 83.6587 79.4015 83.5239C79.5363 83.3891 79.643 83.2318 79.7217 83.052C79.8003 82.8667 79.8396 82.6701 79.8396 82.4622V78.4513Z"/>
<path d="M88.3851 84.771V72.6878H89.4216V84.771H88.3851Z"/>
</mask>
<path d="M29.2519 82.5802C29.2519 82.9285 29.1816 83.2487 29.0412 83.5408C28.9008 83.8273 28.7098 84.0744 28.4682 84.2823C28.2267 84.4901 27.9458 84.653 27.6256 84.771C27.311 84.8833 26.9796 84.9395 26.6313 84.9395H25.9404C25.5921 84.9395 25.2578 84.8749 24.9377 84.7457C24.6231 84.6109 24.345 84.4283 24.1035 84.198C23.8675 83.9677 23.6765 83.6981 23.5305 83.3891C23.39 83.0801 23.3198 82.7515 23.3198 82.4032V82.0578L24.3562 81.8892V82.4622C24.3562 82.6701 24.3984 82.8667 24.4826 83.052C24.5725 83.2318 24.6905 83.3891 24.8365 83.5239C24.9826 83.6587 25.1511 83.7655 25.3421 83.8441C25.5331 83.9227 25.7325 83.9621 25.9404 83.9621H26.6313C26.8392 83.9621 27.0386 83.9312 27.2296 83.8694C27.4206 83.8076 27.5891 83.7205 27.7351 83.6082C27.8868 83.4902 28.0048 83.3498 28.089 83.1869C28.1789 83.024 28.2239 82.8386 28.2239 82.6307C28.2239 82.3218 28.1565 82.069 28.0216 81.8724C27.8868 81.6758 27.7071 81.5129 27.4824 81.3837C27.2633 81.2488 27.0105 81.1393 26.724 81.055C26.4431 80.9652 26.1538 80.8781 25.8561 80.7938C25.5584 80.7039 25.2663 80.6028 24.9798 80.4905C24.6989 80.3781 24.4461 80.2321 24.2214 80.0523C24.0023 79.8669 23.8254 79.6366 23.6906 79.3614C23.5558 79.0861 23.4883 78.7435 23.4883 78.3334C23.4883 77.9851 23.5558 77.6677 23.6906 77.3812C23.8254 77.0891 24.008 76.8391 24.2383 76.6313C24.4686 76.4234 24.7354 76.2633 25.0388 76.151C25.3477 76.033 25.6763 75.974 26.0246 75.974H26.6313C26.9796 75.974 27.3082 76.0415 27.6172 76.1763C27.9261 76.3055 28.1958 76.4852 28.4261 76.7156C28.6564 76.9459 28.8362 77.2155 28.9654 77.5245C29.1002 77.8334 29.1676 78.162 29.1676 78.5103V78.544L28.1312 78.7126V78.4513C28.1312 78.2435 28.0919 78.0497 28.0132 77.8699C27.9346 77.6846 27.8278 77.5245 27.693 77.3896C27.5582 77.2548 27.3981 77.1481 27.2127 77.0695C27.033 76.9908 26.8392 76.9515 26.6313 76.9515H26.0246C25.8168 76.9515 25.6202 76.9824 25.4348 77.0442C25.255 77.106 25.0977 77.1958 24.9629 77.3138C24.8281 77.4262 24.7214 77.5638 24.6427 77.7267C24.5641 77.8896 24.5248 78.075 24.5248 78.2828C24.5248 78.5805 24.5922 78.8249 24.727 79.0159C24.8618 79.2013 25.0388 79.3586 25.2578 79.4878C25.4825 79.617 25.7353 79.7265 26.0162 79.8164C26.3027 79.9007 26.592 79.9905 26.8841 80.086C27.1818 80.1759 27.4711 80.2798 27.752 80.3978C28.0385 80.5158 28.2913 80.6674 28.5104 80.8528C28.7351 81.0382 28.9148 81.2713 29.0496 81.5522C29.1844 81.8274 29.2519 82.1701 29.2519 82.5802Z" fill="#4A097C"/>
<path d="M42.0947 82.4032C42.0947 82.7515 42.0273 83.0801 41.8925 83.3891C41.7633 83.6981 41.5835 83.9677 41.3532 84.198C41.1229 84.4283 40.8533 84.6109 40.5443 84.7457C40.2353 84.8749 39.9067 84.9395 39.5584 84.9395H38.8675C38.5192 84.9395 38.1906 84.8749 37.8816 84.7457C37.5727 84.6109 37.303 84.4283 37.0727 84.198C36.8424 83.9677 36.6598 83.6981 36.525 83.3891C36.3958 83.0801 36.3312 82.7515 36.3312 82.4032V78.5103C36.3312 78.162 36.3958 77.8334 36.525 77.5245C36.6598 77.2155 36.8424 76.9459 37.0727 76.7156C37.303 76.4852 37.5727 76.3055 37.8816 76.1763C38.1906 76.0415 38.5192 75.974 38.8675 75.974H39.5584C39.9067 75.974 40.2353 76.0415 40.5443 76.1763C40.8533 76.3055 41.1229 76.4852 41.3532 76.7156C41.5835 76.9459 41.7633 77.2155 41.8925 77.5245C42.0273 77.8334 42.0947 78.162 42.0947 78.5103V78.8558L41.0583 79.0243V78.4513C41.0583 78.2435 41.019 78.0497 40.9403 77.8699C40.8617 77.6846 40.7549 77.5245 40.6201 77.3896C40.4853 77.2548 40.3252 77.1481 40.1398 77.0695C39.9601 76.9908 39.7663 76.9515 39.5584 76.9515H38.8675C38.6596 76.9515 38.463 76.9908 38.2777 77.0695C38.0979 77.1481 37.9406 77.2548 37.8058 77.3896C37.671 77.5245 37.5642 77.6846 37.4856 77.8699C37.4069 78.0497 37.3676 78.2435 37.3676 78.4513V82.4622C37.3676 82.6701 37.4069 82.8667 37.4856 83.052C37.5642 83.2318 37.671 83.3891 37.8058 83.5239C37.9406 83.6587 38.0979 83.7655 38.2777 83.8441C38.463 83.9227 38.6596 83.9621 38.8675 83.9621H39.5584C39.7663 83.9621 39.9601 83.9227 40.1398 83.8441C40.3252 83.7655 40.4853 83.6587 40.6201 83.5239C40.7549 83.3891 40.8617 83.2318 40.9403 83.052C41.019 82.8667 41.0583 82.6701 41.0583 82.4622V81.8892L42.0947 82.0578V82.4032Z" fill="#4A097C"/>
<path d="M53.9854 84.771V78.4513C53.9854 78.2435 53.9461 78.0497 53.8674 77.8699C53.7888 77.6846 53.6821 77.5245 53.5472 77.3896C53.4124 77.2548 53.2523 77.1481 53.067 77.0695C52.8872 76.9908 52.6934 76.9515 52.4855 76.9515H51.7946C51.5868 76.9515 51.3901 76.9908 51.2048 77.0695C51.025 77.1481 50.8677 77.2548 50.7329 77.3896C50.5981 77.5245 50.4914 77.6846 50.4127 77.8699C50.3341 78.0497 50.2947 78.2435 50.2947 78.4513V84.771H49.2583V72.6878H50.2947V76.8672C50.5307 76.5864 50.8144 76.3673 51.1458 76.21C51.4772 76.0527 51.8367 75.974 52.2243 75.974H52.4855C52.8338 75.974 53.1625 76.0415 53.4714 76.1763C53.7804 76.3055 54.05 76.4852 54.2803 76.7156C54.5106 76.9459 54.6904 77.2155 54.8196 77.5245C54.9544 77.8334 55.0218 78.162 55.0218 78.5103V84.771H53.9854Z" fill="#4A097C"/>
<path d="M67.9489 82.4032C67.9489 82.7515 67.8815 83.0801 67.7467 83.3891C67.6175 83.6981 67.4378 83.9677 67.2074 84.198C66.9771 84.4283 66.7075 84.6109 66.3985 84.7457C66.0896 84.8749 65.7609 84.9395 65.4127 84.9395H64.7217C64.3734 84.9395 64.0448 84.8749 63.7358 84.7457C63.4269 84.6109 63.1573 84.4283 62.9269 84.198C62.6966 83.9677 62.5141 83.6981 62.3792 83.3891C62.25 83.0801 62.1854 82.7515 62.1854 82.4032V78.5103C62.1854 78.162 62.25 77.8334 62.3792 77.5245C62.5141 77.2155 62.6966 76.9459 62.9269 76.7156C63.1573 76.4852 63.4269 76.3055 63.7358 76.1763C64.0448 76.0415 64.3734 75.974 64.7217 75.974H65.4127C65.7609 75.974 66.0896 76.0415 66.3985 76.1763C66.7075 76.3055 66.9771 76.4852 67.2074 76.7156C67.4378 76.9459 67.6175 77.2155 67.7467 77.5245C67.8815 77.8334 67.9489 78.162 67.9489 78.5103V82.4032ZM66.9125 78.4513C66.9125 78.2435 66.8732 78.0497 66.7946 77.8699C66.7159 77.6846 66.6092 77.5245 66.4744 77.3896C66.3395 77.2548 66.1794 77.1481 65.9941 77.0695C65.8143 76.9908 65.6205 76.9515 65.4127 76.9515H64.7217C64.5139 76.9515 64.3173 76.9908 64.1319 77.0695C63.9521 77.1481 63.7948 77.2548 63.66 77.3896C63.5252 77.5245 63.4185 77.6846 63.3398 77.8699C63.2612 78.0497 63.2219 78.2435 63.2219 78.4513V82.4622C63.2219 82.6701 63.2612 82.8667 63.3398 83.052C63.4185 83.2318 63.5252 83.3891 63.66 83.5239C63.7948 83.6587 63.9521 83.7655 64.1319 83.8441C64.3173 83.9227 64.5139 83.9621 64.7217 83.9621H65.4127C65.6205 83.9621 65.8143 83.9227 65.9941 83.8441C66.1794 83.7655 66.3395 83.6587 66.4744 83.5239C66.6092 83.3891 66.7159 83.2318 66.7946 83.052C66.8732 82.8667 66.9125 82.6701 66.9125 82.4622V78.4513Z" fill="#4A097C"/>
<path d="M80.8761 82.4032C80.8761 82.7515 80.8086 83.0801 80.6738 83.3891C80.5446 83.6981 80.3649 83.9677 80.1346 84.198C79.9042 84.4283 79.6346 84.6109 79.3256 84.7457C79.0167 84.8749 78.6881 84.9395 78.3398 84.9395H77.6488C77.3005 84.9395 76.9719 84.8749 76.663 84.7457C76.354 84.6109 76.0844 84.4283 75.8541 84.198C75.6237 83.9677 75.4412 83.6981 75.3063 83.3891C75.1771 83.0801 75.1125 82.7515 75.1125 82.4032V78.5103C75.1125 78.162 75.1771 77.8334 75.3063 77.5245C75.4412 77.2155 75.6237 76.9459 75.8541 76.7156C76.0844 76.4852 76.354 76.3055 76.663 76.1763C76.9719 76.0415 77.3005 75.974 77.6488 75.974H78.3398C78.6881 75.974 79.0167 76.0415 79.3256 76.1763C79.6346 76.3055 79.9042 76.4852 80.1346 76.7156C80.3649 76.9459 80.5446 77.2155 80.6738 77.5245C80.8086 77.8334 80.8761 78.162 80.8761 78.5103V82.4032ZM79.8396 78.4513C79.8396 78.2435 79.8003 78.0497 79.7217 77.8699C79.643 77.6846 79.5363 77.5245 79.4015 77.3896C79.2667 77.2548 79.1066 77.1481 78.9212 77.0695C78.7414 76.9908 78.5476 76.9515 78.3398 76.9515H77.6488C77.441 76.9515 77.2444 76.9908 77.059 77.0695C76.8792 77.1481 76.7219 77.2548 76.5871 77.3896C76.4523 77.5245 76.3456 77.6846 76.2669 77.8699C76.1883 78.0497 76.149 78.2435 76.149 78.4513V82.4622C76.149 82.6701 76.1883 82.8667 76.2669 83.052C76.3456 83.2318 76.4523 83.3891 76.5871 83.5239C76.7219 83.6587 76.8792 83.7655 77.059 83.8441C77.2444 83.9227 77.441 83.9621 77.6488 83.9621H78.3398C78.5476 83.9621 78.7414 83.9227 78.9212 83.8441C79.1066 83.7655 79.2667 83.6587 79.4015 83.5239C79.5363 83.3891 79.643 83.2318 79.7217 83.052C79.8003 82.8667 79.8396 82.6701 79.8396 82.4622V78.4513Z" fill="#4A097C"/>
<path d="M88.3851 84.771V72.6878H89.4216V84.771H88.3851Z" fill="#4A097C"/>
<path d="M29.2519 82.5802C29.2519 82.9285 29.1816 83.2487 29.0412 83.5408C28.9008 83.8273 28.7098 84.0744 28.4682 84.2823C28.2267 84.4901 27.9458 84.653 27.6256 84.771C27.311 84.8833 26.9796 84.9395 26.6313 84.9395H25.9404C25.5921 84.9395 25.2578 84.8749 24.9377 84.7457C24.6231 84.6109 24.345 84.4283 24.1035 84.198C23.8675 83.9677 23.6765 83.6981 23.5305 83.3891C23.39 83.0801 23.3198 82.7515 23.3198 82.4032V82.0578L24.3562 81.8892V82.4622C24.3562 82.6701 24.3984 82.8667 24.4826 83.052C24.5725 83.2318 24.6905 83.3891 24.8365 83.5239C24.9826 83.6587 25.1511 83.7655 25.3421 83.8441C25.5331 83.9227 25.7325 83.9621 25.9404 83.9621H26.6313C26.8392 83.9621 27.0386 83.9312 27.2296 83.8694C27.4206 83.8076 27.5891 83.7205 27.7351 83.6082C27.8868 83.4902 28.0048 83.3498 28.089 83.1869C28.1789 83.024 28.2239 82.8386 28.2239 82.6307C28.2239 82.3218 28.1565 82.069 28.0216 81.8724C27.8868 81.6758 27.7071 81.5129 27.4824 81.3837C27.2633 81.2488 27.0105 81.1393 26.724 81.055C26.4431 80.9652 26.1538 80.8781 25.8561 80.7938C25.5584 80.7039 25.2663 80.6028 24.9798 80.4905C24.6989 80.3781 24.4461 80.2321 24.2214 80.0523C24.0023 79.8669 23.8254 79.6366 23.6906 79.3614C23.5558 79.0861 23.4883 78.7435 23.4883 78.3334C23.4883 77.9851 23.5558 77.6677 23.6906 77.3812C23.8254 77.0891 24.008 76.8391 24.2383 76.6313C24.4686 76.4234 24.7354 76.2633 25.0388 76.151C25.3477 76.033 25.6763 75.974 26.0246 75.974H26.6313C26.9796 75.974 27.3082 76.0415 27.6172 76.1763C27.9261 76.3055 28.1958 76.4852 28.4261 76.7156C28.6564 76.9459 28.8362 77.2155 28.9654 77.5245C29.1002 77.8334 29.1676 78.162 29.1676 78.5103V78.544L28.1312 78.7126V78.4513C28.1312 78.2435 28.0919 78.0497 28.0132 77.8699C27.9346 77.6846 27.8278 77.5245 27.693 77.3896C27.5582 77.2548 27.3981 77.1481 27.2127 77.0695C27.033 76.9908 26.8392 76.9515 26.6313 76.9515H26.0246C25.8168 76.9515 25.6202 76.9824 25.4348 77.0442C25.255 77.106 25.0977 77.1958 24.9629 77.3138C24.8281 77.4262 24.7214 77.5638 24.6427 77.7267C24.5641 77.8896 24.5248 78.075 24.5248 78.2828C24.5248 78.5805 24.5922 78.8249 24.727 79.0159C24.8618 79.2013 25.0388 79.3586 25.2578 79.4878C25.4825 79.617 25.7353 79.7265 26.0162 79.8164C26.3027 79.9007 26.592 79.9905 26.8841 80.086C27.1818 80.1759 27.4711 80.2798 27.752 80.3978C28.0385 80.5158 28.2913 80.6674 28.5104 80.8528C28.7351 81.0382 28.9148 81.2713 29.0496 81.5522C29.1844 81.8274 29.2519 82.1701 29.2519 82.5802Z" stroke="#4A097C" stroke-width="0.6" mask="url(#path-3-outside-1_204_294)"/>
<path d="M42.0947 82.4032C42.0947 82.7515 42.0273 83.0801 41.8925 83.3891C41.7633 83.6981 41.5835 83.9677 41.3532 84.198C41.1229 84.4283 40.8533 84.6109 40.5443 84.7457C40.2353 84.8749 39.9067 84.9395 39.5584 84.9395H38.8675C38.5192 84.9395 38.1906 84.8749 37.8816 84.7457C37.5727 84.6109 37.303 84.4283 37.0727 84.198C36.8424 83.9677 36.6598 83.6981 36.525 83.3891C36.3958 83.0801 36.3312 82.7515 36.3312 82.4032V78.5103C36.3312 78.162 36.3958 77.8334 36.525 77.5245C36.6598 77.2155 36.8424 76.9459 37.0727 76.7156C37.303 76.4852 37.5727 76.3055 37.8816 76.1763C38.1906 76.0415 38.5192 75.974 38.8675 75.974H39.5584C39.9067 75.974 40.2353 76.0415 40.5443 76.1763C40.8533 76.3055 41.1229 76.4852 41.3532 76.7156C41.5835 76.9459 41.7633 77.2155 41.8925 77.5245C42.0273 77.8334 42.0947 78.162 42.0947 78.5103V78.8558L41.0583 79.0243V78.4513C41.0583 78.2435 41.019 78.0497 40.9403 77.8699C40.8617 77.6846 40.7549 77.5245 40.6201 77.3896C40.4853 77.2548 40.3252 77.1481 40.1398 77.0695C39.9601 76.9908 39.7663 76.9515 39.5584 76.9515H38.8675C38.6596 76.9515 38.463 76.9908 38.2777 77.0695C38.0979 77.1481 37.9406 77.2548 37.8058 77.3896C37.671 77.5245 37.5642 77.6846 37.4856 77.8699C37.4069 78.0497 37.3676 78.2435 37.3676 78.4513V82.4622C37.3676 82.6701 37.4069 82.8667 37.4856 83.052C37.5642 83.2318 37.671 83.3891 37.8058 83.5239C37.9406 83.6587 38.0979 83.7655 38.2777 83.8441C38.463 83.9227 38.6596 83.9621 38.8675 83.9621H39.5584C39.7663 83.9621 39.9601 83.9227 40.1398 83.8441C40.3252 83.7655 40.4853 83.6587 40.6201 83.5239C40.7549 83.3891 40.8617 83.2318 40.9403 83.052C41.019 82.8667 41.0583 82.6701 41.0583 82.4622V81.8892L42.0947 82.0578V82.4032Z" stroke="#4A097C" stroke-width="0.6" mask="url(#path-3-outside-1_204_294)"/>
<path d="M53.9854 84.771V78.4513C53.9854 78.2435 53.9461 78.0497 53.8674 77.8699C53.7888 77.6846 53.6821 77.5245 53.5472 77.3896C53.4124 77.2548 53.2523 77.1481 53.067 77.0695C52.8872 76.9908 52.6934 76.9515 52.4855 76.9515H51.7946C51.5868 76.9515 51.3901 76.9908 51.2048 77.0695C51.025 77.1481 50.8677 77.2548 50.7329 77.3896C50.5981 77.5245 50.4914 77.6846 50.4127 77.8699C50.3341 78.0497 50.2947 78.2435 50.2947 78.4513V84.771H49.2583V72.6878H50.2947V76.8672C50.5307 76.5864 50.8144 76.3673 51.1458 76.21C51.4772 76.0527 51.8367 75.974 52.2243 75.974H52.4855C52.8338 75.974 53.1625 76.0415 53.4714 76.1763C53.7804 76.3055 54.05 76.4852 54.2803 76.7156C54.5106 76.9459 54.6904 77.2155 54.8196 77.5245C54.9544 77.8334 55.0218 78.162 55.0218 78.5103V84.771H53.9854Z" stroke="#4A097C" stroke-width="0.6" mask="url(#path-3-outside-1_204_294)"/>
<path d="M67.9489 82.4032C67.9489 82.7515 67.8815 83.0801 67.7467 83.3891C67.6175 83.6981 67.4378 83.9677 67.2074 84.198C66.9771 84.4283 66.7075 84.6109 66.3985 84.7457C66.0896 84.8749 65.7609 84.9395 65.4127 84.9395H64.7217C64.3734 84.9395 64.0448 84.8749 63.7358 84.7457C63.4269 84.6109 63.1573 84.4283 62.9269 84.198C62.6966 83.9677 62.5141 83.6981 62.3792 83.3891C62.25 83.0801 62.1854 82.7515 62.1854 82.4032V78.5103C62.1854 78.162 62.25 77.8334 62.3792 77.5245C62.5141 77.2155 62.6966 76.9459 62.9269 76.7156C63.1573 76.4852 63.4269 76.3055 63.7358 76.1763C64.0448 76.0415 64.3734 75.974 64.7217 75.974H65.4127C65.7609 75.974 66.0896 76.0415 66.3985 76.1763C66.7075 76.3055 66.9771 76.4852 67.2074 76.7156C67.4378 76.9459 67.6175 77.2155 67.7467 77.5245C67.8815 77.8334 67.9489 78.162 67.9489 78.5103V82.4032ZM66.9125 78.4513C66.9125 78.2435 66.8732 78.0497 66.7946 77.8699C66.7159 77.6846 66.6092 77.5245 66.4744 77.3896C66.3395 77.2548 66.1794 77.1481 65.9941 77.0695C65.8143 76.9908 65.6205 76.9515 65.4127 76.9515H64.7217C64.5139 76.9515 64.3173 76.9908 64.1319 77.0695C63.9521 77.1481 63.7948 77.2548 63.66 77.3896C63.5252 77.5245 63.4185 77.6846 63.3398 77.8699C63.2612 78.0497 63.2219 78.2435 63.2219 78.4513V82.4622C63.2219 82.6701 63.2612 82.8667 63.3398 83.052C63.4185 83.2318 63.5252 83.3891 63.66 83.5239C63.7948 83.6587 63.9521 83.7655 64.1319 83.8441C64.3173 83.9227 64.5139 83.9621 64.7217 83.9621H65.4127C65.6205 83.9621 65.8143 83.9227 65.9941 83.8441C66.1794 83.7655 66.3395 83.6587 66.4744 83.5239C66.6092 83.3891 66.7159 83.2318 66.7946 83.052C66.8732 82.8667 66.9125 82.6701 66.9125 82.4622V78.4513Z" stroke="#4A097C" stroke-width="0.6" mask="url(#path-3-outside-1_204_294)"/>
<path d="M80.8761 82.4032C80.8761 82.7515 80.8086 83.0801 80.6738 83.3891C80.5446 83.6981 80.3649 83.9677 80.1346 84.198C79.9042 84.4283 79.6346 84.6109 79.3256 84.7457C79.0167 84.8749 78.6881 84.9395 78.3398 84.9395H77.6488C77.3005 84.9395 76.9719 84.8749 76.663 84.7457C76.354 84.6109 76.0844 84.4283 75.8541 84.198C75.6237 83.9677 75.4412 83.6981 75.3063 83.3891C75.1771 83.0801 75.1125 82.7515 75.1125 82.4032V78.5103C75.1125 78.162 75.1771 77.8334 75.3063 77.5245C75.4412 77.2155 75.6237 76.9459 75.8541 76.7156C76.0844 76.4852 76.354 76.3055 76.663 76.1763C76.9719 76.0415 77.3005 75.974 77.6488 75.974H78.3398C78.6881 75.974 79.0167 76.0415 79.3256 76.1763C79.6346 76.3055 79.9042 76.4852 80.1346 76.7156C80.3649 76.9459 80.5446 77.2155 80.6738 77.5245C80.8086 77.8334 80.8761 78.162 80.8761 78.5103V82.4032ZM79.8396 78.4513C79.8396 78.2435 79.8003 78.0497 79.7217 77.8699C79.643 77.6846 79.5363 77.5245 79.4015 77.3896C79.2667 77.2548 79.1066 77.1481 78.9212 77.0695C78.7414 76.9908 78.5476 76.9515 78.3398 76.9515H77.6488C77.441 76.9515 77.2444 76.9908 77.059 77.0695C76.8792 77.1481 76.7219 77.2548 76.5871 77.3896C76.4523 77.5245 76.3456 77.6846 76.2669 77.8699C76.1883 78.0497 76.149 78.2435 76.149 78.4513V82.4622C76.149 82.6701 76.1883 82.8667 76.2669 83.052C76.3456 83.2318 76.4523 83.3891 76.5871 83.5239C76.7219 83.6587 76.8792 83.7655 77.059 83.8441C77.2444 83.9227 77.441 83.9621 77.6488 83.9621H78.3398C78.5476 83.9621 78.7414 83.9227 78.9212 83.8441C79.1066 83.7655 79.2667 83.6587 79.4015 83.5239C79.5363 83.3891 79.643 83.2318 79.7217 83.052C79.8003 82.8667 79.8396 82.6701 79.8396 82.4622V78.4513Z" stroke="#4A097C" stroke-width="0.6" mask="url(#path-3-outside-1_204_294)"/>
<path d="M88.3851 84.771V72.6878H89.4216V84.771H88.3851Z" stroke="#4A097C" stroke-width="0.6" mask="url(#path-3-outside-1_204_294)"/>
<path d="M83.5263 32.4917L83.5106 32.4902L83.495 32.4919L78.6934 33.0203C78.592 32.7268 78.6088 32.4281 78.7442 32.1359C78.8973 31.8056 79.2023 31.484 79.6526 31.201C80.1022 30.9186 80.6773 30.6867 81.3382 30.5253C81.9986 30.3641 82.7244 30.2781 83.4622 30.2745C84.2 30.2708 84.9292 30.3495 85.5961 30.5043C86.2635 30.6591 86.8483 30.8854 87.3095 31.1637C87.7717 31.4426 88.0905 31.7619 88.2573 32.092C88.4043 32.3827 88.4329 32.68 88.345 32.9721L83.5263 32.4917Z" fill="#4A097C" stroke="#4A097C" stroke-width="0.3"/>
</svg>
