<svg width="65" height="65" viewBox="0 0 65 65" fill="none" xmlns="http://www.w3.org/2000/svg">
<circle cx="32.5" cy="32.5" r="31.5" stroke="#F3EBFB" stroke-width="2"/>
<path d="M51.1971 33.3225C51.3924 32.8759 51.4895 32.3985 51.4895 31.8921V20.862V20.712H51.3395H50.0484H49.8984V20.862V31.8921C49.8984 32.1929 49.8421 32.4728 49.7305 32.7333C49.6177 32.99 49.4646 33.2181 49.2708 33.4184C49.0782 33.6107 48.8511 33.7634 48.588 33.8761L48.5868 33.8767C48.3335 33.9878 48.0573 34.0442 47.7563 34.0442H46.8554C46.5546 34.0442 46.2748 33.9879 46.0143 33.8764C45.758 33.7638 45.5301 33.6109 45.33 33.4175C45.1366 33.2174 44.9837 32.9895 44.8711 32.7332C44.7596 32.4727 44.7033 32.1928 44.7033 31.8921V20.862V20.712H44.5533H43.2621H43.1121V20.862V31.8921C43.1121 32.3982 43.2058 32.8752 43.3942 33.3216L43.395 33.3234C43.5891 33.7671 43.8531 34.1565 44.187 34.4904C44.5209 34.8243 44.9103 35.0884 45.354 35.2825L45.3566 35.2836C45.8092 35.4716 46.2893 35.5653 46.7954 35.5653H47.8163C48.3224 35.5653 48.7994 35.4716 49.2459 35.2833L49.2477 35.2825C49.6914 35.0884 50.0808 34.8243 50.4147 34.4904C50.7488 34.1563 51.0097 33.7666 51.1971 33.3225ZM51.1971 33.3225C51.1973 33.3222 51.1974 33.3219 51.1975 33.3216L51.0593 33.2633L51.1967 33.3234C51.1969 33.3231 51.197 33.3228 51.1971 33.3225ZM19.1183 35.2833L19.1183 35.2833L19.1201 35.2825C19.5638 35.0884 19.9531 34.8243 20.287 34.4904C20.6211 34.1563 20.882 33.7666 21.0695 33.3225C21.2647 32.8759 21.3619 32.3986 21.3619 31.8921V20.862V20.712H21.2119H19.9207H19.7707V20.862V31.8921C19.7707 32.1929 19.7145 32.4727 19.603 32.7332C19.4902 32.9899 19.3371 33.218 19.1432 33.4183C18.9506 33.6107 18.7235 33.7634 18.4604 33.8761L18.4592 33.8767C18.2059 33.9878 17.9297 34.0442 17.6286 34.0442H16.7278C16.427 34.0442 16.1472 33.9879 15.8867 33.8764C15.6304 33.7638 15.4025 33.6109 15.2024 33.4175C15.009 33.2174 14.8561 32.9896 14.7435 32.7332C14.632 32.4727 14.5757 32.1929 14.5757 31.8921V20.862V20.712H14.4257H13.1345H12.9845V20.862V31.8921C12.9845 32.3982 13.0782 32.8752 13.2666 33.3216L13.2666 33.3216L13.2673 33.3234C13.4615 33.7671 13.7255 34.1565 14.0594 34.4904C14.3933 34.8243 14.7827 35.0884 15.2264 35.2825L15.2264 35.2825L15.229 35.2836C15.6816 35.4716 16.1616 35.5653 16.6678 35.5653H17.6887C18.1948 35.5653 18.6718 35.4716 19.1183 35.2833ZM23.9346 35.2151V35.3651H24.0846H30.8708H31.0208V35.2151V33.984V33.834H30.8708H25.5257V20.862V20.712H25.3757H24.0846H23.9346V20.862V35.2151ZM32.7727 35.2151V35.3651H32.9227H41.0001H41.1501V35.2151V33.984V33.834H41.0001H34.3638V28.8091H39.7089H39.8589V28.6591V27.428V27.278H39.7089H34.3638V22.2431H41.0001H41.1501V22.0931V20.862V20.712H41.0001H32.9227H32.7727V20.862V35.2151Z" fill="#F3EBFB" stroke="#F3EBFB" stroke-width="0.3"/>
<mask id="path-3-outside-1_204_294" maskUnits="userSpaceOnUse" x="12.2964" y="40.4448" width="39" height="9" fill="black">
<rect fill="white" x="12.2964" y="40.4448" width="39" height="9"/>
<path d="M16.6787 47.0852C16.6787 47.2838 16.6387 47.4663 16.5586 47.6329C16.4785 47.7962 16.3696 47.9372 16.2319 48.0557C16.0942 48.1742 15.934 48.2671 15.7514 48.3343C15.5721 48.3984 15.3831 48.4304 15.1845 48.4304H14.7906C14.592 48.4304 14.4014 48.3936 14.2188 48.3199C14.0395 48.243 13.8809 48.1389 13.7432 48.0076C13.6087 47.8763 13.4998 47.7226 13.4165 47.5464C13.3364 47.3702 13.2964 47.1829 13.2964 46.9843V46.7873L13.8873 46.6912V47.0179C13.8873 47.1364 13.9114 47.2485 13.9594 47.3542C14.0106 47.4567 14.0779 47.5464 14.1612 47.6233C14.2445 47.7001 14.3405 47.761 14.4494 47.8058C14.5583 47.8507 14.672 47.8731 14.7906 47.8731H15.1845C15.303 47.8731 15.4167 47.8555 15.5256 47.8203C15.6345 47.785 15.7306 47.7354 15.8139 47.6713C15.9004 47.6041 15.9676 47.524 16.0157 47.4311C16.0669 47.3382 16.0925 47.2325 16.0925 47.114C16.0925 46.9378 16.0541 46.7937 15.9772 46.6816C15.9004 46.5695 15.7979 46.4766 15.6698 46.403C15.5448 46.3261 15.4007 46.2636 15.2374 46.2156C15.0772 46.1643 14.9123 46.1147 14.7425 46.0666C14.5728 46.0154 14.4062 45.9577 14.2429 45.8937C14.0827 45.8296 13.9386 45.7464 13.8105 45.6439C13.6855 45.5382 13.5847 45.4068 13.5078 45.2499C13.4309 45.093 13.3925 44.8976 13.3925 44.6638C13.3925 44.4652 13.4309 44.2842 13.5078 44.1209C13.5847 43.9543 13.6887 43.8118 13.8201 43.6933C13.9514 43.5748 14.1035 43.4835 14.2765 43.4194C14.4526 43.3522 14.64 43.3185 14.8386 43.3185H15.1845C15.3831 43.3185 15.5705 43.357 15.7466 43.4338C15.9228 43.5075 16.0765 43.61 16.2079 43.7413C16.3392 43.8726 16.4417 44.0264 16.5153 44.2025C16.5922 44.3787 16.6306 44.5661 16.6306 44.7647V44.7839L16.0397 44.88V44.731C16.0397 44.6125 16.0173 44.502 15.9724 44.3995C15.9276 44.2938 15.8667 44.2025 15.7899 44.1257C15.713 44.0488 15.6217 43.9879 15.516 43.9431C15.4135 43.8983 15.303 43.8758 15.1845 43.8758H14.8386C14.7201 43.8758 14.608 43.8935 14.5023 43.9287C14.3998 43.9639 14.3101 44.0152 14.2332 44.0824C14.1564 44.1465 14.0955 44.225 14.0507 44.3178C14.0058 44.4107 13.9834 44.5164 13.9834 44.6349C13.9834 44.8047 14.0219 44.944 14.0987 45.0529C14.1756 45.1586 14.2765 45.2483 14.4014 45.322C14.5295 45.3956 14.6736 45.4581 14.8338 45.5093C14.9971 45.5574 15.1621 45.6086 15.3286 45.6631C15.4984 45.7143 15.6634 45.7736 15.8235 45.8408C15.9869 45.9081 16.131 45.9946 16.2559 46.1003C16.384 46.206 16.4865 46.3389 16.5634 46.499C16.6403 46.656 16.6787 46.8514 16.6787 47.0852Z"/>
<path d="M24.0014 46.9843C24.0014 47.1829 23.9629 47.3702 23.8861 47.5464C23.8124 47.7226 23.7099 47.8763 23.5786 48.0076C23.4473 48.1389 23.2935 48.243 23.1174 48.3199C22.9412 48.3936 22.7538 48.4304 22.5552 48.4304H22.1613C21.9627 48.4304 21.7753 48.3936 21.5992 48.3199C21.423 48.243 21.2693 48.1389 21.1379 48.0076C21.0066 47.8763 20.9025 47.7226 20.8257 47.5464C20.752 47.3702 20.7152 47.1829 20.7152 46.9843V44.7647C20.7152 44.5661 20.752 44.3787 20.8257 44.2025C20.9025 44.0264 21.0066 43.8726 21.1379 43.7413C21.2693 43.61 21.423 43.5075 21.5992 43.4338C21.7753 43.357 21.9627 43.3185 22.1613 43.3185H22.5552C22.7538 43.3185 22.9412 43.357 23.1174 43.4338C23.2935 43.5075 23.4473 43.61 23.5786 43.7413C23.7099 43.8726 23.8124 44.0264 23.8861 44.2025C23.9629 44.3787 24.0014 44.5661 24.0014 44.7647V44.9616L23.4104 45.0577V44.731C23.4104 44.6125 23.388 44.502 23.3432 44.3995C23.2983 44.2938 23.2375 44.2025 23.1606 44.1257C23.0837 44.0488 22.9924 43.9879 22.8867 43.9431C22.7843 43.8983 22.6738 43.8758 22.5552 43.8758H22.1613C22.0428 43.8758 21.9307 43.8983 21.825 43.9431C21.7225 43.9879 21.6328 44.0488 21.5559 44.1257C21.4791 44.2025 21.4182 44.2938 21.3734 44.3995C21.3285 44.502 21.3061 44.6125 21.3061 44.731V47.0179C21.3061 47.1364 21.3285 47.2485 21.3734 47.3542C21.4182 47.4567 21.4791 47.5464 21.5559 47.6233C21.6328 47.7001 21.7225 47.761 21.825 47.8058C21.9307 47.8507 22.0428 47.8731 22.1613 47.8731H22.5552C22.6738 47.8731 22.7843 47.8507 22.8867 47.8058C22.9924 47.761 23.0837 47.7001 23.1606 47.6233C23.2375 47.5464 23.2983 47.4567 23.3432 47.3542C23.388 47.2485 23.4104 47.1364 23.4104 47.0179V46.6912L24.0014 46.7873V46.9843Z"/>
<path d="M30.7812 48.3343V44.731C30.7812 44.6125 30.7587 44.502 30.7139 44.3995C30.669 44.2938 30.6082 44.2025 30.5313 44.1257C30.4545 44.0488 30.3632 43.9879 30.2575 43.9431C30.155 43.8983 30.0445 43.8758 29.926 43.8758H29.532C29.4135 43.8758 29.3014 43.8983 29.1957 43.9431C29.0932 43.9879 29.0035 44.0488 28.9267 44.1257C28.8498 44.2025 28.7889 44.2938 28.7441 44.3995C28.6992 44.502 28.6768 44.6125 28.6768 44.731V48.3343H28.0859V41.4448H28.6768V43.8278C28.8113 43.6676 28.9731 43.5427 29.1621 43.453C29.351 43.3634 29.556 43.3185 29.777 43.3185H29.926C30.1245 43.3185 30.3119 43.357 30.4881 43.4338C30.6642 43.5075 30.818 43.61 30.9493 43.7413C31.0806 43.8726 31.1831 44.0264 31.2568 44.2025C31.3337 44.3787 31.3721 44.5661 31.3721 44.7647V48.3343H30.7812Z"/>
<path d="M38.7428 46.9843C38.7428 47.1829 38.7044 47.3702 38.6275 47.5464C38.5538 47.7226 38.4513 47.8763 38.32 48.0076C38.1887 48.1389 38.035 48.243 37.8588 48.3199C37.6826 48.3936 37.4953 48.4304 37.2967 48.4304H36.9027C36.7041 48.4304 36.5168 48.3936 36.3406 48.3199C36.1645 48.243 36.0107 48.1389 35.8794 48.0076C35.7481 47.8763 35.644 47.7226 35.5671 47.5464C35.4934 47.3702 35.4566 47.1829 35.4566 46.9843V44.7647C35.4566 44.5661 35.4934 44.3787 35.5671 44.2025C35.644 44.0264 35.7481 43.8726 35.8794 43.7413C36.0107 43.61 36.1645 43.5075 36.3406 43.4338C36.5168 43.357 36.7041 43.3185 36.9027 43.3185H37.2967C37.4953 43.3185 37.6826 43.357 37.8588 43.4338C38.035 43.5075 38.1887 43.61 38.32 43.7413C38.4513 43.8726 38.5538 44.0264 38.6275 44.2025C38.7044 44.3787 38.7428 44.5661 38.7428 44.7647V46.9843ZM38.1519 44.731C38.1519 44.6125 38.1295 44.502 38.0846 44.3995C38.0398 44.2938 37.9789 44.2025 37.902 44.1257C37.8252 44.0488 37.7339 43.9879 37.6282 43.9431C37.5257 43.8983 37.4152 43.8758 37.2967 43.8758H36.9027C36.7842 43.8758 36.6721 43.8983 36.5664 43.9431C36.4639 43.9879 36.3742 44.0488 36.2974 44.1257C36.2205 44.2025 36.1596 44.2938 36.1148 44.3995C36.07 44.502 36.0475 44.6125 36.0475 44.731V47.0179C36.0475 47.1364 36.07 47.2485 36.1148 47.3542C36.1596 47.4567 36.2205 47.5464 36.2974 47.6233C36.3742 47.7001 36.4639 47.761 36.5664 47.8058C36.6721 47.8507 36.7842 47.8731 36.9027 47.8731H37.2967C37.4152 47.8731 37.5257 47.8507 37.6282 47.8058C37.7339 47.761 37.8252 47.7001 37.902 47.6233C37.9789 47.5464 38.0398 47.4567 38.0846 47.3542C38.1295 47.2485 38.1519 47.1364 38.1519 47.0179V44.731Z"/>
<path d="M46.1135 46.9843C46.1135 47.1829 46.0751 47.3702 45.9982 47.5464C45.9246 47.7226 45.8221 47.8763 45.6908 48.0076C45.5594 48.1389 45.4057 48.243 45.2295 48.3199C45.0534 48.3936 44.866 48.4304 44.6674 48.4304H44.2735C44.0749 48.4304 43.8875 48.3936 43.7113 48.3199C43.5352 48.243 43.3814 48.1389 43.2501 48.0076C43.1188 47.8763 43.0147 47.7226 42.9378 47.5464C42.8642 47.3702 42.8273 47.1829 42.8273 46.9843V44.7647C42.8273 44.5661 42.8642 44.3787 42.9378 44.2025C43.0147 44.0264 43.1188 43.8726 43.2501 43.7413C43.3814 43.61 43.5352 43.5075 43.7113 43.4338C43.8875 43.357 44.0749 43.3185 44.2735 43.3185H44.6674C44.866 43.3185 45.0534 43.357 45.2295 43.4338C45.4057 43.5075 45.5594 43.61 45.6908 43.7413C45.8221 43.8726 45.9246 44.0264 45.9982 44.2025C46.0751 44.3787 46.1135 44.5661 46.1135 44.7647V46.9843ZM45.5226 44.731C45.5226 44.6125 45.5002 44.502 45.4553 44.3995C45.4105 44.2938 45.3496 44.2025 45.2728 44.1257C45.1959 44.0488 45.1046 43.9879 44.9989 43.9431C44.8964 43.8983 44.7859 43.8758 44.6674 43.8758H44.2735C44.1549 43.8758 44.0428 43.8983 43.9371 43.9431C43.8347 43.9879 43.745 44.0488 43.6681 44.1257C43.5912 44.2025 43.5304 44.2938 43.4855 44.3995C43.4407 44.502 43.4183 44.6125 43.4183 44.731V47.0179C43.4183 47.1364 43.4407 47.2485 43.4855 47.3542C43.5304 47.4567 43.5912 47.5464 43.6681 47.6233C43.745 47.7001 43.8347 47.761 43.9371 47.8058C44.0428 47.8507 44.1549 47.8731 44.2735 47.8731H44.6674C44.7859 47.8731 44.8964 47.8507 44.9989 47.8058C45.1046 47.761 45.1959 47.7001 45.2728 47.6233C45.3496 47.5464 45.4105 47.4567 45.4553 47.3542C45.5002 47.2485 45.5226 47.1364 45.5226 47.0179V44.731Z"/>
<path d="M50.395 48.3343V41.4448H50.986V48.3343H50.395Z"/>
</mask>
<path d="M16.6787 47.0852C16.6787 47.2838 16.6387 47.4663 16.5586 47.6329C16.4785 47.7962 16.3696 47.9372 16.2319 48.0557C16.0942 48.1742 15.934 48.2671 15.7514 48.3343C15.5721 48.3984 15.3831 48.4304 15.1845 48.4304H14.7906C14.592 48.4304 14.4014 48.3936 14.2188 48.3199C14.0395 48.243 13.8809 48.1389 13.7432 48.0076C13.6087 47.8763 13.4998 47.7226 13.4165 47.5464C13.3364 47.3702 13.2964 47.1829 13.2964 46.9843V46.7873L13.8873 46.6912V47.0179C13.8873 47.1364 13.9114 47.2485 13.9594 47.3542C14.0106 47.4567 14.0779 47.5464 14.1612 47.6233C14.2445 47.7001 14.3405 47.761 14.4494 47.8058C14.5583 47.8507 14.672 47.8731 14.7906 47.8731H15.1845C15.303 47.8731 15.4167 47.8555 15.5256 47.8203C15.6345 47.785 15.7306 47.7354 15.8139 47.6713C15.9004 47.6041 15.9676 47.524 16.0157 47.4311C16.0669 47.3382 16.0925 47.2325 16.0925 47.114C16.0925 46.9378 16.0541 46.7937 15.9772 46.6816C15.9004 46.5695 15.7979 46.4766 15.6698 46.403C15.5448 46.3261 15.4007 46.2636 15.2374 46.2156C15.0772 46.1643 14.9123 46.1147 14.7425 46.0666C14.5728 46.0154 14.4062 45.9577 14.2429 45.8937C14.0827 45.8296 13.9386 45.7464 13.8105 45.6439C13.6855 45.5382 13.5847 45.4068 13.5078 45.2499C13.4309 45.093 13.3925 44.8976 13.3925 44.6638C13.3925 44.4652 13.4309 44.2842 13.5078 44.1209C13.5847 43.9543 13.6887 43.8118 13.8201 43.6933C13.9514 43.5748 14.1035 43.4835 14.2765 43.4194C14.4526 43.3522 14.64 43.3185 14.8386 43.3185H15.1845C15.3831 43.3185 15.5705 43.357 15.7466 43.4338C15.9228 43.5075 16.0765 43.61 16.2079 43.7413C16.3392 43.8726 16.4417 44.0264 16.5153 44.2025C16.5922 44.3787 16.6306 44.5661 16.6306 44.7647V44.7839L16.0397 44.88V44.731C16.0397 44.6125 16.0173 44.502 15.9724 44.3995C15.9276 44.2938 15.8667 44.2025 15.7899 44.1257C15.713 44.0488 15.6217 43.9879 15.516 43.9431C15.4135 43.8983 15.303 43.8758 15.1845 43.8758H14.8386C14.7201 43.8758 14.608 43.8935 14.5023 43.9287C14.3998 43.9639 14.3101 44.0152 14.2332 44.0824C14.1564 44.1465 14.0955 44.225 14.0507 44.3178C14.0058 44.4107 13.9834 44.5164 13.9834 44.6349C13.9834 44.8047 14.0219 44.944 14.0987 45.0529C14.1756 45.1586 14.2765 45.2483 14.4014 45.322C14.5295 45.3956 14.6736 45.4581 14.8338 45.5093C14.9971 45.5574 15.1621 45.6086 15.3286 45.6631C15.4984 45.7143 15.6634 45.7736 15.8235 45.8408C15.9869 45.9081 16.131 45.9946 16.2559 46.1003C16.384 46.206 16.4865 46.3389 16.5634 46.499C16.6403 46.656 16.6787 46.8514 16.6787 47.0852Z" fill="#F3EBFB"/>
<path d="M24.0014 46.9843C24.0014 47.1829 23.9629 47.3702 23.8861 47.5464C23.8124 47.7226 23.7099 47.8763 23.5786 48.0076C23.4473 48.1389 23.2935 48.243 23.1174 48.3199C22.9412 48.3936 22.7538 48.4304 22.5552 48.4304H22.1613C21.9627 48.4304 21.7753 48.3936 21.5992 48.3199C21.423 48.243 21.2693 48.1389 21.1379 48.0076C21.0066 47.8763 20.9025 47.7226 20.8257 47.5464C20.752 47.3702 20.7152 47.1829 20.7152 46.9843V44.7647C20.7152 44.5661 20.752 44.3787 20.8257 44.2025C20.9025 44.0264 21.0066 43.8726 21.1379 43.7413C21.2693 43.61 21.423 43.5075 21.5992 43.4338C21.7753 43.357 21.9627 43.3185 22.1613 43.3185H22.5552C22.7538 43.3185 22.9412 43.357 23.1174 43.4338C23.2935 43.5075 23.4473 43.61 23.5786 43.7413C23.7099 43.8726 23.8124 44.0264 23.8861 44.2025C23.9629 44.3787 24.0014 44.5661 24.0014 44.7647V44.9616L23.4104 45.0577V44.731C23.4104 44.6125 23.388 44.502 23.3432 44.3995C23.2983 44.2938 23.2375 44.2025 23.1606 44.1257C23.0837 44.0488 22.9924 43.9879 22.8867 43.9431C22.7843 43.8983 22.6738 43.8758 22.5552 43.8758H22.1613C22.0428 43.8758 21.9307 43.8983 21.825 43.9431C21.7225 43.9879 21.6328 44.0488 21.5559 44.1257C21.4791 44.2025 21.4182 44.2938 21.3734 44.3995C21.3285 44.502 21.3061 44.6125 21.3061 44.731V47.0179C21.3061 47.1364 21.3285 47.2485 21.3734 47.3542C21.4182 47.4567 21.4791 47.5464 21.5559 47.6233C21.6328 47.7001 21.7225 47.761 21.825 47.8058C21.9307 47.8507 22.0428 47.8731 22.1613 47.8731H22.5552C22.6738 47.8731 22.7843 47.8507 22.8867 47.8058C22.9924 47.761 23.0837 47.7001 23.1606 47.6233C23.2375 47.5464 23.2983 47.4567 23.3432 47.3542C23.388 47.2485 23.4104 47.1364 23.4104 47.0179V46.6912L24.0014 46.7873V46.9843Z" fill="#F3EBFB"/>
<path d="M30.7812 48.3343V44.731C30.7812 44.6125 30.7587 44.502 30.7139 44.3995C30.669 44.2938 30.6082 44.2025 30.5313 44.1257C30.4545 44.0488 30.3632 43.9879 30.2575 43.9431C30.155 43.8983 30.0445 43.8758 29.926 43.8758H29.532C29.4135 43.8758 29.3014 43.8983 29.1957 43.9431C29.0932 43.9879 29.0035 44.0488 28.9267 44.1257C28.8498 44.2025 28.7889 44.2938 28.7441 44.3995C28.6992 44.502 28.6768 44.6125 28.6768 44.731V48.3343H28.0859V41.4448H28.6768V43.8278C28.8113 43.6676 28.9731 43.5427 29.1621 43.453C29.351 43.3634 29.556 43.3185 29.777 43.3185H29.926C30.1245 43.3185 30.3119 43.357 30.4881 43.4338C30.6642 43.5075 30.818 43.61 30.9493 43.7413C31.0806 43.8726 31.1831 44.0264 31.2568 44.2025C31.3337 44.3787 31.3721 44.5661 31.3721 44.7647V48.3343H30.7812Z" fill="#F3EBFB"/>
<path d="M38.7428 46.9843C38.7428 47.1829 38.7044 47.3702 38.6275 47.5464C38.5538 47.7226 38.4513 47.8763 38.32 48.0076C38.1887 48.1389 38.035 48.243 37.8588 48.3199C37.6826 48.3936 37.4953 48.4304 37.2967 48.4304H36.9027C36.7041 48.4304 36.5168 48.3936 36.3406 48.3199C36.1645 48.243 36.0107 48.1389 35.8794 48.0076C35.7481 47.8763 35.644 47.7226 35.5671 47.5464C35.4934 47.3702 35.4566 47.1829 35.4566 46.9843V44.7647C35.4566 44.5661 35.4934 44.3787 35.5671 44.2025C35.644 44.0264 35.7481 43.8726 35.8794 43.7413C36.0107 43.61 36.1645 43.5075 36.3406 43.4338C36.5168 43.357 36.7041 43.3185 36.9027 43.3185H37.2967C37.4953 43.3185 37.6826 43.357 37.8588 43.4338C38.035 43.5075 38.1887 43.61 38.32 43.7413C38.4513 43.8726 38.5538 44.0264 38.6275 44.2025C38.7044 44.3787 38.7428 44.5661 38.7428 44.7647V46.9843ZM38.1519 44.731C38.1519 44.6125 38.1295 44.502 38.0846 44.3995C38.0398 44.2938 37.9789 44.2025 37.902 44.1257C37.8252 44.0488 37.7339 43.9879 37.6282 43.9431C37.5257 43.8983 37.4152 43.8758 37.2967 43.8758H36.9027C36.7842 43.8758 36.6721 43.8983 36.5664 43.9431C36.4639 43.9879 36.3742 44.0488 36.2974 44.1257C36.2205 44.2025 36.1596 44.2938 36.1148 44.3995C36.07 44.502 36.0475 44.6125 36.0475 44.731V47.0179C36.0475 47.1364 36.07 47.2485 36.1148 47.3542C36.1596 47.4567 36.2205 47.5464 36.2974 47.6233C36.3742 47.7001 36.4639 47.761 36.5664 47.8058C36.6721 47.8507 36.7842 47.8731 36.9027 47.8731H37.2967C37.4152 47.8731 37.5257 47.8507 37.6282 47.8058C37.7339 47.761 37.8252 47.7001 37.902 47.6233C37.9789 47.5464 38.0398 47.4567 38.0846 47.3542C38.1295 47.2485 38.1519 47.1364 38.1519 47.0179V44.731Z" fill="#F3EBFB"/>
<path d="M46.1135 46.9843C46.1135 47.1829 46.0751 47.3702 45.9982 47.5464C45.9246 47.7226 45.8221 47.8763 45.6908 48.0076C45.5594 48.1389 45.4057 48.243 45.2295 48.3199C45.0534 48.3936 44.866 48.4304 44.6674 48.4304H44.2735C44.0749 48.4304 43.8875 48.3936 43.7113 48.3199C43.5352 48.243 43.3814 48.1389 43.2501 48.0076C43.1188 47.8763 43.0147 47.7226 42.9378 47.5464C42.8642 47.3702 42.8273 47.1829 42.8273 46.9843V44.7647C42.8273 44.5661 42.8642 44.3787 42.9378 44.2025C43.0147 44.0264 43.1188 43.8726 43.2501 43.7413C43.3814 43.61 43.5352 43.5075 43.7113 43.4338C43.8875 43.357 44.0749 43.3185 44.2735 43.3185H44.6674C44.866 43.3185 45.0534 43.357 45.2295 43.4338C45.4057 43.5075 45.5594 43.61 45.6908 43.7413C45.8221 43.8726 45.9246 44.0264 45.9982 44.2025C46.0751 44.3787 46.1135 44.5661 46.1135 44.7647V46.9843ZM45.5226 44.731C45.5226 44.6125 45.5002 44.502 45.4553 44.3995C45.4105 44.2938 45.3496 44.2025 45.2728 44.1257C45.1959 44.0488 45.1046 43.9879 44.9989 43.9431C44.8964 43.8983 44.7859 43.8758 44.6674 43.8758H44.2735C44.1549 43.8758 44.0428 43.8983 43.9371 43.9431C43.8347 43.9879 43.745 44.0488 43.6681 44.1257C43.5912 44.2025 43.5304 44.2938 43.4855 44.3995C43.4407 44.502 43.4183 44.6125 43.4183 44.731V47.0179C43.4183 47.1364 43.4407 47.2485 43.4855 47.3542C43.5304 47.4567 43.5912 47.5464 43.6681 47.6233C43.745 47.7001 43.8347 47.761 43.9371 47.8058C44.0428 47.8507 44.1549 47.8731 44.2735 47.8731H44.6674C44.7859 47.8731 44.8964 47.8507 44.9989 47.8058C45.1046 47.761 45.1959 47.7001 45.2728 47.6233C45.3496 47.5464 45.4105 47.4567 45.4553 47.3542C45.5002 47.2485 45.5226 47.1364 45.5226 47.0179V44.731Z" fill="#F3EBFB"/>
<path d="M50.395 48.3343V41.4448H50.986V48.3343H50.395Z" fill="#F3EBFB"/>
<path d="M16.6787 47.0852C16.6787 47.2838 16.6387 47.4663 16.5586 47.6329C16.4785 47.7962 16.3696 47.9372 16.2319 48.0557C16.0942 48.1742 15.934 48.2671 15.7514 48.3343C15.5721 48.3984 15.3831 48.4304 15.1845 48.4304H14.7906C14.592 48.4304 14.4014 48.3936 14.2188 48.3199C14.0395 48.243 13.8809 48.1389 13.7432 48.0076C13.6087 47.8763 13.4998 47.7226 13.4165 47.5464C13.3364 47.3702 13.2964 47.1829 13.2964 46.9843V46.7873L13.8873 46.6912V47.0179C13.8873 47.1364 13.9114 47.2485 13.9594 47.3542C14.0106 47.4567 14.0779 47.5464 14.1612 47.6233C14.2445 47.7001 14.3405 47.761 14.4494 47.8058C14.5583 47.8507 14.672 47.8731 14.7906 47.8731H15.1845C15.303 47.8731 15.4167 47.8555 15.5256 47.8203C15.6345 47.785 15.7306 47.7354 15.8139 47.6713C15.9004 47.6041 15.9676 47.524 16.0157 47.4311C16.0669 47.3382 16.0925 47.2325 16.0925 47.114C16.0925 46.9378 16.0541 46.7937 15.9772 46.6816C15.9004 46.5695 15.7979 46.4766 15.6698 46.403C15.5448 46.3261 15.4007 46.2636 15.2374 46.2156C15.0772 46.1643 14.9123 46.1147 14.7425 46.0666C14.5728 46.0154 14.4062 45.9577 14.2429 45.8937C14.0827 45.8296 13.9386 45.7464 13.8105 45.6439C13.6855 45.5382 13.5847 45.4068 13.5078 45.2499C13.4309 45.093 13.3925 44.8976 13.3925 44.6638C13.3925 44.4652 13.4309 44.2842 13.5078 44.1209C13.5847 43.9543 13.6887 43.8118 13.8201 43.6933C13.9514 43.5748 14.1035 43.4835 14.2765 43.4194C14.4526 43.3522 14.64 43.3185 14.8386 43.3185H15.1845C15.3831 43.3185 15.5705 43.357 15.7466 43.4338C15.9228 43.5075 16.0765 43.61 16.2079 43.7413C16.3392 43.8726 16.4417 44.0264 16.5153 44.2025C16.5922 44.3787 16.6306 44.5661 16.6306 44.7647V44.7839L16.0397 44.88V44.731C16.0397 44.6125 16.0173 44.502 15.9724 44.3995C15.9276 44.2938 15.8667 44.2025 15.7899 44.1257C15.713 44.0488 15.6217 43.9879 15.516 43.9431C15.4135 43.8983 15.303 43.8758 15.1845 43.8758H14.8386C14.7201 43.8758 14.608 43.8935 14.5023 43.9287C14.3998 43.9639 14.3101 44.0152 14.2332 44.0824C14.1564 44.1465 14.0955 44.225 14.0507 44.3178C14.0058 44.4107 13.9834 44.5164 13.9834 44.6349C13.9834 44.8047 14.0219 44.944 14.0987 45.0529C14.1756 45.1586 14.2765 45.2483 14.4014 45.322C14.5295 45.3956 14.6736 45.4581 14.8338 45.5093C14.9971 45.5574 15.1621 45.6086 15.3286 45.6631C15.4984 45.7143 15.6634 45.7736 15.8235 45.8408C15.9869 45.9081 16.131 45.9946 16.2559 46.1003C16.384 46.206 16.4865 46.3389 16.5634 46.499C16.6403 46.656 16.6787 46.8514 16.6787 47.0852Z" stroke="#F3EBFB" stroke-width="0.6" mask="url(#path-3-outside-1_204_294)"/>
<path d="M24.0014 46.9843C24.0014 47.1829 23.9629 47.3702 23.8861 47.5464C23.8124 47.7226 23.7099 47.8763 23.5786 48.0076C23.4473 48.1389 23.2935 48.243 23.1174 48.3199C22.9412 48.3936 22.7538 48.4304 22.5552 48.4304H22.1613C21.9627 48.4304 21.7753 48.3936 21.5992 48.3199C21.423 48.243 21.2693 48.1389 21.1379 48.0076C21.0066 47.8763 20.9025 47.7226 20.8257 47.5464C20.752 47.3702 20.7152 47.1829 20.7152 46.9843V44.7647C20.7152 44.5661 20.752 44.3787 20.8257 44.2025C20.9025 44.0264 21.0066 43.8726 21.1379 43.7413C21.2693 43.61 21.423 43.5075 21.5992 43.4338C21.7753 43.357 21.9627 43.3185 22.1613 43.3185H22.5552C22.7538 43.3185 22.9412 43.357 23.1174 43.4338C23.2935 43.5075 23.4473 43.61 23.5786 43.7413C23.7099 43.8726 23.8124 44.0264 23.8861 44.2025C23.9629 44.3787 24.0014 44.5661 24.0014 44.7647V44.9616L23.4104 45.0577V44.731C23.4104 44.6125 23.388 44.502 23.3432 44.3995C23.2983 44.2938 23.2375 44.2025 23.1606 44.1257C23.0837 44.0488 22.9924 43.9879 22.8867 43.9431C22.7843 43.8983 22.6738 43.8758 22.5552 43.8758H22.1613C22.0428 43.8758 21.9307 43.8983 21.825 43.9431C21.7225 43.9879 21.6328 44.0488 21.5559 44.1257C21.4791 44.2025 21.4182 44.2938 21.3734 44.3995C21.3285 44.502 21.3061 44.6125 21.3061 44.731V47.0179C21.3061 47.1364 21.3285 47.2485 21.3734 47.3542C21.4182 47.4567 21.4791 47.5464 21.5559 47.6233C21.6328 47.7001 21.7225 47.761 21.825 47.8058C21.9307 47.8507 22.0428 47.8731 22.1613 47.8731H22.5552C22.6738 47.8731 22.7843 47.8507 22.8867 47.8058C22.9924 47.761 23.0837 47.7001 23.1606 47.6233C23.2375 47.5464 23.2983 47.4567 23.3432 47.3542C23.388 47.2485 23.4104 47.1364 23.4104 47.0179V46.6912L24.0014 46.7873V46.9843Z" stroke="#F3EBFB" stroke-width="0.6" mask="url(#path-3-outside-1_204_294)"/>
<path d="M30.7812 48.3343V44.731C30.7812 44.6125 30.7587 44.502 30.7139 44.3995C30.669 44.2938 30.6082 44.2025 30.5313 44.1257C30.4545 44.0488 30.3632 43.9879 30.2575 43.9431C30.155 43.8983 30.0445 43.8758 29.926 43.8758H29.532C29.4135 43.8758 29.3014 43.8983 29.1957 43.9431C29.0932 43.9879 29.0035 44.0488 28.9267 44.1257C28.8498 44.2025 28.7889 44.2938 28.7441 44.3995C28.6992 44.502 28.6768 44.6125 28.6768 44.731V48.3343H28.0859V41.4448H28.6768V43.8278C28.8113 43.6676 28.9731 43.5427 29.1621 43.453C29.351 43.3634 29.556 43.3185 29.777 43.3185H29.926C30.1245 43.3185 30.3119 43.357 30.4881 43.4338C30.6642 43.5075 30.818 43.61 30.9493 43.7413C31.0806 43.8726 31.1831 44.0264 31.2568 44.2025C31.3337 44.3787 31.3721 44.5661 31.3721 44.7647V48.3343H30.7812Z" stroke="#F3EBFB" stroke-width="0.6" mask="url(#path-3-outside-1_204_294)"/>
<path d="M38.7428 46.9843C38.7428 47.1829 38.7044 47.3702 38.6275 47.5464C38.5538 47.7226 38.4513 47.8763 38.32 48.0076C38.1887 48.1389 38.035 48.243 37.8588 48.3199C37.6826 48.3936 37.4953 48.4304 37.2967 48.4304H36.9027C36.7041 48.4304 36.5168 48.3936 36.3406 48.3199C36.1645 48.243 36.0107 48.1389 35.8794 48.0076C35.7481 47.8763 35.644 47.7226 35.5671 47.5464C35.4934 47.3702 35.4566 47.1829 35.4566 46.9843V44.7647C35.4566 44.5661 35.4934 44.3787 35.5671 44.2025C35.644 44.0264 35.7481 43.8726 35.8794 43.7413C36.0107 43.61 36.1645 43.5075 36.3406 43.4338C36.5168 43.357 36.7041 43.3185 36.9027 43.3185H37.2967C37.4953 43.3185 37.6826 43.357 37.8588 43.4338C38.035 43.5075 38.1887 43.61 38.32 43.7413C38.4513 43.8726 38.5538 44.0264 38.6275 44.2025C38.7044 44.3787 38.7428 44.5661 38.7428 44.7647V46.9843ZM38.1519 44.731C38.1519 44.6125 38.1295 44.502 38.0846 44.3995C38.0398 44.2938 37.9789 44.2025 37.902 44.1257C37.8252 44.0488 37.7339 43.9879 37.6282 43.9431C37.5257 43.8983 37.4152 43.8758 37.2967 43.8758H36.9027C36.7842 43.8758 36.6721 43.8983 36.5664 43.9431C36.4639 43.9879 36.3742 44.0488 36.2974 44.1257C36.2205 44.2025 36.1596 44.2938 36.1148 44.3995C36.07 44.502 36.0475 44.6125 36.0475 44.731V47.0179C36.0475 47.1364 36.07 47.2485 36.1148 47.3542C36.1596 47.4567 36.2205 47.5464 36.2974 47.6233C36.3742 47.7001 36.4639 47.761 36.5664 47.8058C36.6721 47.8507 36.7842 47.8731 36.9027 47.8731H37.2967C37.4152 47.8731 37.5257 47.8507 37.6282 47.8058C37.7339 47.761 37.8252 47.7001 37.902 47.6233C37.9789 47.5464 38.0398 47.4567 38.0846 47.3542C38.1295 47.2485 38.1519 47.1364 38.1519 47.0179V44.731Z" stroke="#F3EBFB" stroke-width="0.6" mask="url(#path-3-outside-1_204_294)"/>
<path d="M46.1135 46.9843C46.1135 47.1829 46.0751 47.3702 45.9982 47.5464C45.9246 47.7226 45.8221 47.8763 45.6908 48.0076C45.5594 48.1389 45.4057 48.243 45.2295 48.3199C45.0534 48.3936 44.866 48.4304 44.6674 48.4304H44.2735C44.0749 48.4304 43.8875 48.3936 43.7113 48.3199C43.5352 48.243 43.3814 48.1389 43.2501 48.0076C43.1188 47.8763 43.0147 47.7226 42.9378 47.5464C42.8642 47.3702 42.8273 47.1829 42.8273 46.9843V44.7647C42.8273 44.5661 42.8642 44.3787 42.9378 44.2025C43.0147 44.0264 43.1188 43.8726 43.2501 43.7413C43.3814 43.61 43.5352 43.5075 43.7113 43.4338C43.8875 43.357 44.0749 43.3185 44.2735 43.3185H44.6674C44.866 43.3185 45.0534 43.357 45.2295 43.4338C45.4057 43.5075 45.5594 43.61 45.6908 43.7413C45.8221 43.8726 45.9246 44.0264 45.9982 44.2025C46.0751 44.3787 46.1135 44.5661 46.1135 44.7647V46.9843ZM45.5226 44.731C45.5226 44.6125 45.5002 44.502 45.4553 44.3995C45.4105 44.2938 45.3496 44.2025 45.2728 44.1257C45.1959 44.0488 45.1046 43.9879 44.9989 43.9431C44.8964 43.8983 44.7859 43.8758 44.6674 43.8758H44.2735C44.1549 43.8758 44.0428 43.8983 43.9371 43.9431C43.8347 43.9879 43.745 44.0488 43.6681 44.1257C43.5912 44.2025 43.5304 44.2938 43.4855 44.3995C43.4407 44.502 43.4183 44.6125 43.4183 44.731V47.0179C43.4183 47.1364 43.4407 47.2485 43.4855 47.3542C43.5304 47.4567 43.5912 47.5464 43.6681 47.6233C43.745 47.7001 43.8347 47.761 43.9371 47.8058C44.0428 47.8507 44.1549 47.8731 44.2735 47.8731H44.6674C44.7859 47.8731 44.8964 47.8507 44.9989 47.8058C45.1046 47.761 45.1959 47.7001 45.2728 47.6233C45.3496 47.5464 45.4105 47.4567 45.4553 47.3542C45.5002 47.2485 45.5226 47.1364 45.5226 47.0179V44.731Z" stroke="#F3EBFB" stroke-width="0.6" mask="url(#path-3-outside-1_204_294)"/>
<path d="M50.395 48.3343V41.4448H50.986V48.3343H50.395Z" stroke="#F3EBFB" stroke-width="0.6" mask="url(#path-3-outside-1_204_294)"/>
<path d="M47.631 18.4618L47.6154 18.4603L47.5998 18.462L44.9152 18.7574C44.8802 18.6219 44.8938 18.4854 44.9565 18.3502C45.037 18.1766 45.2003 18.0018 45.4503 17.8446C45.6995 17.6881 46.0206 17.5582 46.3924 17.4674C46.7637 17.3768 47.1724 17.3283 47.5885 17.3262C48.0045 17.3242 48.4152 17.3686 48.7903 17.4556C49.1658 17.5427 49.4925 17.6695 49.7485 17.824C50.0053 17.979 50.1766 18.1531 50.2646 18.3271C50.3325 18.4614 50.3516 18.5965 50.3235 18.7303L47.631 18.4618Z" fill="#F3EBFB" stroke="#F3EBFB" stroke-width="0.3"/>
</svg>
